<svg xmlns="http://www.w3.org/2000/svg" viewBox="0 0 155 150"><defs><style>.cls-1{isolation:isolate;}.cls-2{mix-blend-mode:darken;}.cls-3{fill:#c6c6c6;}.cls-4,.cls-7{fill:#fff;}.cls-5,.cls-6{fill:#373731;}.cls-5{stroke:#373731;stroke-width:0.29px;}.cls-5,.cls-7{stroke-miterlimit:10;}.cls-7{stroke:#fff;stroke-width:1px;}</style></defs><title>Meganav Icons</title><g class="cls-1"><g id="Layer_1" data-name="Layer 1"><g class="cls-2"><path class="cls-3" d="M85.44,134.05c0,2.15,12.17,3.89,27.19,3.89s27.19-1.74,27.19-3.89-12.17-3.9-27.19-3.9-27.19,1.75-27.19,3.9"/></g><g class="cls-2"><path class="cls-3" d="M28.32,132.91c0,2.74,16.77,5,40.17,5s44.58-1.09,44.58-5c0-2.74-21.18-5-44.58-5s-40.17,2.21-40.17,5"/></g><path class="cls-4" d="M44.93,118.68a5.53,5.53,0,0,1-1,.58,3.41,3.41,0,0,1-4.65-1.79c-.48-1,.66-3.11,1.49-4.64.36-.67.71-1.3,1-1.9a16,16,0,0,0,.68-1.78A30.27,30.27,0,0,0,44,115.27,24.75,24.75,0,0,1,44.93,118.68Z"/><path class="cls-4" d="M79.58,132.73l-.2,0h0l-4.38,0a6.46,6.46,0,0,1-4.63-1.5l-.34-.34-.35.34a6.45,6.45,0,0,1-4.62,1.5l-7.27,0-.06,0-.26,0H47.23a4.29,4.29,0,0,1-3.78-2l-.16-.25-.74,0h-.17c-6,0-11.25-2.58-13.64-6.73-1.65-2.85-2.73-7.73,1.45-14.82.8-1.36,1.65-3.23,1.13-4.36S29.38,103.22,28,103s-2-.71-1.86-1.57a5.67,5.67,0,0,1,4.29-4.62A9.17,9.17,0,0,1,33,96.44a10.14,10.14,0,0,1,7.47,3.23,8.28,8.28,0,0,1,1.73,3.2l1,0A29.26,29.26,0,0,1,47,93.61l.09-.16,0-.17c-1.34-9.82-.46-16.9,2.7-21.66l.48-.73-.87,0a24.08,24.08,0,0,1-9.11-2.28L40,68.41l-6.89,7.44a8,8,0,0,1-.78.36l-.14,0a1.29,1.29,0,0,1-.36.06l-.15,0v-.06c0-.52,1.76-2.44,4.22-5.11.77-.82,1.65-1.77,2.61-2.83l.41-.45-.52-.31a23,23,0,0,1-2.79-2l-.37-.3-.32.34A81.18,81.18,0,0,1,26.25,74a2.39,2.39,0,0,0-.3.29l-.13.14h0l-.16,0a1.28,1.28,0,0,1-.77-.38l-.07-.05,9.53-9.65L34,64.07l-.53-.53c-.6-.65-1.17-1.32-1.74-2.06l-.32-.43L31,61.4a73.25,73.25,0,0,1-6.79,5.39,10.74,10.74,0,0,1-2.26,1.26l-.14,0-.36.08v-.13a15.38,15.38,0,0,1,1.83-1.85,32.42,32.42,0,0,0,3.34-2.8l.33-.31c1-.87,2.05-1.86,3.34-2.85l.36-.28-.24-.39a23.32,23.32,0,0,1-1.92-3.71l-.06-.15-.14-.09C23.6,52.7,18.32,47,17.56,42.52a3.27,3.27,0,0,1,.55-2.79c1.46-1.72,4-2.6,7.66-2.6a30.77,30.77,0,0,1,4.19.32,53.91,53.91,0,0,1,6.81,1.47l.33.1.21-.28c4.57-6.33,9.24-8.7,11.62-9.55l.35-.12,0-.37a30.7,30.7,0,0,1,1.11-9.54c.79-2.78,2.27-6.31,4.81-7.29a1.11,1.11,0,0,1,.41-.08c7.55.15,11.49,12.32,12.2,14.76l.06.2.18.1a21.43,21.43,0,0,1,5.74,4.51l.26.28,11.13-5.47h0a1.24,1.24,0,0,1,.79.62l0,.07-.08,0c-.06,0-.31.12-.49.19a5.39,5.39,0,0,0-.91.36l-.38.22-2.4,1.4a10.27,10.27,0,0,1-1.55.77,14.87,14.87,0,0,0-2.53,1.32c-1.07.66-1.38.88-1.73,1.14l-.53.38-.39.27.25.4a28.55,28.55,0,0,1,1.58,3l.2.43.6-.23,9.93-5.37a10.73,10.73,0,0,1,2.32-1l.27-.08.25,0c.25,0,.4.13.79.53l.24.25,0,.05a9.88,9.88,0,0,1-1.74,1c-.46.25-1,.52-1.51.82l-.87.52c-2.75,1.68-5.85,3.19-7.71,4.08l-.94.46a1.09,1.09,0,0,0-.62,1.3l.7,2.55a1.07,1.07,0,0,0,.58.67,1.43,1.43,0,0,0,.52.11,1,1,0,0,0,.25,0l13.49-4.62v.12c0,.43,0,.71-.21.82-2.49,1.53-6.49,2.88-9.71,4l-1.45.49L80,44l-.15,0a1.6,1.6,0,0,0-.55.45l-.14.16,0,.21A31.7,31.7,0,0,1,76.8,59.73l-.12.29.21.23c9.93,11.06,14.39,24.49,13.26,39.93-.06,2.39-.2,4.52-.33,6.39-.46,7-.75,11.27,3.22,17.06a7,7,0,0,1,.59,6.84,4.19,4.19,0,0,1-3.86,2.26ZM41.91,109a16.5,16.5,0,0,1-.65,1.73c-.26.59-.6,1.22-1,1.87-.93,1.72-2.09,3.85-1.5,5.1a3.81,3.81,0,0,0,3.52,2.39,4.77,4.77,0,0,0,1.76-.36,5.83,5.83,0,0,0,1.14-.63l.25-.18,0-.31a22.84,22.84,0,0,0-1-3.49,29.24,29.24,0,0,1-1.54-6Z"/><path class="cls-5" d="M41.15,48.62c-3.43,1.61-5.07,5.58-3.88,9.61,6.54,1.4,12.92-2.21,14.17-9.16C49.05,47.18,44.62,47,41.15,48.62ZM39,56.89a5.31,5.31,0,0,1,.8-4.43,4.59,4.59,0,0,0,3.33,3.84A7.23,7.23,0,0,1,39,56.89Zm8.72-4-3.42-3.21a8.79,8.79,0,0,1,4.87.19C48.64,50.9,48.16,51.9,47.7,52.87Z"/><path class="cls-5" d="M57,37a7.53,7.53,0,0,0-.56,8.69c7.64-.12,13.24-5.49,11.7-11.64C63.61,33.22,59.68,33.61,57,37Zm.53,7.2a10,10,0,0,1,.22-4.2l3.59,2.89C60.38,43.2,57.57,44.15,57.57,44.15Zm8-4.87c-.69-1.9-2-2.85-4.25-3.3a9,9,0,0,1,5.19-.72A4.75,4.75,0,0,1,65.57,39.28Z"/><path class="cls-5" d="M66.1,49.2a.27.27,0,0,0-.16.08.21.21,0,0,0,0,.17c0,.18.08.36.12.54a5.23,5.23,0,0,0,.31,1.13,2.09,2.09,0,0,1,0,1.69,3.21,3.21,0,0,1-1.73,1.76c-1.19.46-3.42-.06-3.93-1.15A4.5,4.5,0,0,1,60.36,51c.17-1.16-.23-1.69-.59-1.93a2.33,2.33,0,0,0-2.44.27,12.81,12.81,0,0,0-1.59,1.16,1.73,1.73,0,0,0-.77,1.4c0,.48.39.91,1.09,1.32l.16.09a5.42,5.42,0,0,0,1.46.69c1.16.29,1.45,1,1.53,2.08a3.4,3.4,0,0,1-1,3,3.45,3.45,0,0,1-3.19.41l-.16-.07a.79.79,0,0,0-.52-.08,5.58,5.58,0,0,0-.82.38l-.3.15a.25.25,0,0,0-.11.12.22.22,0,0,0,0,.16,2.67,2.67,0,0,1,.14.34,1.32,1.32,0,0,0,.51.75,4.19,4.19,0,0,0,2,.5,5.21,5.21,0,0,0,4.28-2.2A13.25,13.25,0,0,0,61,57.62l.33-.74.86-.13a19.65,19.65,0,0,0,2.12-.38,5.44,5.44,0,0,0,4.11-5.06C68.39,49.87,67.7,49.24,66.1,49.2Z"/><path class="cls-6" d="M42.38,130.81h.72l0,.07a4.64,4.64,0,0,0,4.09,2.22H57.42a1.12,1.12,0,0,0,.34-.05l7.25.05a6.78,6.78,0,0,0,4.87-1.61l.1-.09.1.09A6.76,6.76,0,0,0,75,133.09l4.2,0h.14l.29,0H89.77A4.55,4.55,0,0,0,94,130.64a7.38,7.38,0,0,0-.62-7.21c-3.89-5.69-3.61-9.88-3.15-16.83.13-1.88.27-4,.33-6.38C91.64,84.67,87.15,71.15,77.16,60L77.1,60l0-.09a32,32,0,0,0,2.38-15V44.8l0,0a1.27,1.27,0,0,1,.39-.34l.16-.06,2.11-.74.15,0,1.44-.49c3.24-1.09,7.26-2.45,9.8-4,.42-.27.38-.92.36-1.13l0-.58L80,42.09a.84.84,0,0,1-.54-.06.68.68,0,0,1-.39-.44L78.39,39a.73.73,0,0,1,.43-.87l.77-.37.17-.08c1.88-.91,5-2.42,7.75-4.11l.42-.25.44-.26c.53-.3,1-.57,1.5-.81a9.67,9.67,0,0,0,1.83-1.11l.28-.3-.48-.51c-.47-.47-.73-.74-1.38-.58l-.18,0-.1,0a10.74,10.74,0,0,0-2.38,1l-9.89,5.35-.3.12,0-.12a28.41,28.41,0,0,0-1.61-3l-.07-.12.11-.08c.23-.15.39-.27.54-.38a20.26,20.26,0,0,1,1.7-1.13,14.9,14.9,0,0,1,2.48-1.29,9.69,9.69,0,0,0,1.6-.8L84.37,28l.37-.22a5.93,5.93,0,0,1,.86-.34,2.81,2.81,0,0,0,.56-.22l.4-.24-.27-.37a1.55,1.55,0,0,0-1-.77l-.17,0-11,5.4L74,31.12a21.89,21.89,0,0,0-5.84-4.59l0,0,0-.06a36.73,36.73,0,0,0-3.73-8.62c-2.57-4.18-5.53-6.33-8.79-6.39a1.3,1.3,0,0,0-.56.09c-2.68,1-4.21,4.67-5,7.53a30.84,30.84,0,0,0-1.12,9.65v.11l-.1,0c-2.42.86-7.17,3.26-11.79,9.67l-.06.08-.1,0A52,52,0,0,0,30,37.1c-6-.84-10.11,0-12.17,2.4a3.62,3.62,0,0,0-.63,3.08C18,47.16,23.35,53,28.08,55.92l0,0,0,0a22.8,22.8,0,0,0,1.95,3.77l.06.11-.1.08c-1.3,1-2.4,2-3.37,2.88l-.32.3A31.54,31.54,0,0,1,23,65.93l0,0A8.93,8.93,0,0,0,21.08,68l-.07.62.68-.15.2,0,.15,0a11.46,11.46,0,0,0,2.34-1.3,74.51,74.51,0,0,0,6.83-5.42l.12-.1.09.12a24.54,24.54,0,0,0,1.76,2.09l.53.55.1.1-9.54,9.66.35.3a1.38,1.38,0,0,0,1.27.43l.12,0,.21-.21a2.37,2.37,0,0,1,.23-.23c1.6-1.09,5.69-5.26,8.7-8.51l.1-.1.1.08a23.38,23.38,0,0,0,2.83,2l.15.09-.11.13c-1,1-1.84,2-2.61,2.83-3.09,3.34-4.35,4.73-4.31,5.38l0,.33.32.07a1.63,1.63,0,0,0,.64-.06l.16,0a5.73,5.73,0,0,0,.87-.42l0-.05,6.7-7.23.1,0A24.72,24.72,0,0,0,49.4,71.2l.25,0-.14.2c-3.2,4.84-4.11,12-2.75,21.91v0l0,0a29.74,29.74,0,0,0-3.92,9.34l-.12.58-.16-.57a8.52,8.52,0,0,0-1.81-3.34,10.45,10.45,0,0,0-10.37-3,6,6,0,0,0-4.54,4.91c-.21,1.38,1,1.78,2.14,2,.92.17,2.62.46,3,1.37s0,2.21-1.11,4C25.62,116,26.74,121,28.43,123.91,30.88,128.17,36.23,130.81,42.38,130.81Zm48.52-5.72a4.49,4.49,0,0,1,.45,4.18,1.61,1.61,0,0,1-1.58.88H87.84l.06-.19a4.71,4.71,0,0,0,.22-.92,5.43,5.43,0,0,0-.63-3.45,7.46,7.46,0,0,1-.8-3.92,20.63,20.63,0,0,1,.65-3.64l.14-.58.14.58A21.71,21.71,0,0,0,90.9,125.09Zm-37-54.28s0,0,.06-.06l.1-.11a.83.83,0,0,0,.08-.12l.08-.12.06-.13,0-.13a.74.74,0,0,0,0-.14.68.68,0,0,0,0-.14.76.76,0,0,0,0-.15v-.06l.14-.05h-.14s0,0,0,0a.9.9,0,0,0,0-.16,1,1,0,0,1,0-.12,1.11,1.11,0,0,0-.07-.16l0-.1-.11-.16s0-.06-.05-.07l0,0a.22.22,0,0,0-.07-.07l0,0-.06-.06-.17-.12-.06,0-.18-.08-.1,0-.16,0-.13,0h-.2q-.91.06-1.8.06A21.3,21.3,0,0,1,30.71,54.49a1.46,1.46,0,0,0-.64-.8c-7-4.12-10.41-10.94-10-12.28l0,0c1.46-1.67,4.91-1.77,7.54-1.57a43.29,43.29,0,0,1,9.44,1.93,1.48,1.48,0,0,0,1.68-.57A27,27,0,0,1,46.94,33a11.36,11.36,0,0,1,3.19-1.48l.59-.18c.93-.31,1.31-.81,1.22-1.61-.7-6.26,1.6-13.93,3.89-15.32l0,0h0c3.06.31,5.43,3.73,6.89,6.54a37.54,37.54,0,0,1,2.68,6.94,1.45,1.45,0,0,0,.76.95,17.6,17.6,0,0,1,6.81,5.79c6.38,10.4,2.81,21,1,25a1.31,1.31,0,0,0-.09.28.28.28,0,0,0,0,.09l0,.1s0,.06,0,.09a.41.41,0,0,0,0,.11v.09s0,.06,0,.09a.31.31,0,0,0,0,.08l0,.09a.3.3,0,0,0,0,.1l0,.08,0,.1a.3.3,0,0,0,0,.08,2,2,0,0,0,.17.23c9.31,10,13.82,22.18,13.4,36.16v0a1.35,1.35,0,0,0-.08.46c0,.6,0,1.18,0,1.74a94.45,94.45,0,0,1-2.75,16.26,30.13,30.13,0,0,0-1.08,5.77,10.38,10.38,0,0,0,1.09,5.21,2.49,2.49,0,0,1,.36,1.8C85,130,83,130.09,82.57,130.1h0l-7.57.05c-1.6,0-2.65-.38-3.12-1.12-.78-1.21-.19-3.61.36-4.84a55.3,55.3,0,0,0,4.66-11.66c2.2-8.14,2-15.2-.59-21a1.47,1.47,0,1,0-2.68,1.19C78.55,103.87,72.1,118,70,122l-.1.19-.13-.16c-1.46-1.77-8.47-11.17-3.39-22.56a1.47,1.47,0,0,0-.75-1.94,1.47,1.47,0,0,0-1.94.74c-6,13.38,2.38,24,4.11,26l0,0c.13.32,1.26,3.19.29,4.69-.47.74-1.52,1.12-3.11,1.12l-7.54-.05h-.09s-2.45,0-2.63-1.42a2.54,2.54,0,0,1,.36-1.8,10.35,10.35,0,0,0,1.1-5.21c0-1.52-.78-4.33-2-8.59C50.94,101.14,44.79,78.93,53.89,70.81Zm-7,43.47c-1.28-3.78-2.87-8.49.47-15.79l.19-.41.08.44c1.09,5.6,2.59,11,3.79,15.34a50.48,50.48,0,0,1,1.86,7.81,7.46,7.46,0,0,1-.8,3.92,5.36,5.36,0,0,0-.64,3.45,4.71,4.71,0,0,0,.22.92l.07.19H47.23a1.74,1.74,0,0,1-1.72-1.08,4,4,0,0,1,.5-3.87C49.26,121.3,48.05,117.73,46.88,114.28Zm-5.3-3.41a16,16,0,0,0,.67-1.77l.2-.62.08.65a30.12,30.12,0,0,0,1.56,6.09,22.56,22.56,0,0,1,1,3.44l0,.09-.08,0a5.07,5.07,0,0,1-1.06.59,4.33,4.33,0,0,1-1.64.33,3.42,3.42,0,0,1-3.19-2.19c-.51-1.08.65-3.21,1.49-4.77C41,112.1,41.32,111.47,41.58,110.87Zm-9.16-.65c1.64-2.79,2-5,1.24-6.76s-2.84-2.53-4.23-2.84l-.24-.05.16-.18a3.61,3.61,0,0,1,1.84-1.12,7.52,7.52,0,0,1,7.33,2.1c1.76,2,1.89,4.88.37,8.31-.21.49-.53,1.06-.86,1.67-1.21,2.24-2.72,5-1.57,7.44a6.39,6.39,0,0,0,7.64,3.63l.37-.09-.21.31c-.18.26-.34.47-.51.68a6.84,6.84,0,0,0-1.48,4.4v.15h-.15c-4.92-.07-9.29-2.2-11.16-5.42S29.61,115,32.42,110.22Z"/><path class="cls-7" d="M127.66,132.3a6.52,6.52,0,0,0,1.24-.11,1.22,1.22,0,0,0-.51-2.39s-2.15.41-3.28-1c-1.94-2.43-7.19-3.32-7.72-3.32,0,0,0,1.42-2.54,2l-1.37,1.41c1.55,0,8.8.34,9.72,1.48A5.56,5.56,0,0,0,127.66,132.3Z"/><path class="cls-6" d="M117.77,125.67c.55,0,5.58.33,7.64,2.9a2.82,2.82,0,0,0,2.25.91,4.32,4.32,0,0,0,.66,0,1.69,1.69,0,0,1,.33,0,1.6,1.6,0,0,1,.33,3.16,6.67,6.67,0,0,1-1.32.12,5.9,5.9,0,0,1-4.75-2.11c-.79-1-3.39-1.44-5-1.44-2.8,0-4.22-.38-4.22-1.13l-2.5,1.47c.31,1.17,4.61,2.5,6.71,2.5a8.2,8.2,0,0,1,2.82.5l.13.09a8.76,8.76,0,0,0,6.79,3,10,10,0,0,0,1.92-.18,4.44,4.44,0,0,0,3.41-5.28,4.41,4.41,0,0,0-5.15-3.43h-.34l-.11-.13a8.28,8.28,0,0,0-7-3h-1Z"/><path class="cls-6" d="M88.91,126.26l.24.06,0,.24a5.57,5.57,0,0,0,5.94,4.31l.24,0,.13.2A6.41,6.41,0,0,0,99.62,134a6.87,6.87,0,0,0,5.16-1.17l.1-.07H105a17.61,17.61,0,0,0,6.76-.88,39,39,0,0,0,5.78-2.88,11.51,11.51,0,0,0,3.22-2.93v0a24.47,24.47,0,0,0,1.6-2.3c2.17-3.66,2.63-10.3,2.56-11.22-.13-2.6-.34-3.87-.34-3.89l-.41-2.06v-.08a10.23,10.23,0,0,0-2-7.23,6.93,6.93,0,0,0-5.34-2.92h-.13l-.1-.09a19.58,19.58,0,0,0-12.22-4.17A23.78,23.78,0,0,0,92.3,95.9l-.15.07c-3.24.75-5.86,3.77-5.82,6.73v.14l-.1.11c-1.93,2.16-3.53,6.24-2.74,9.08l0,.13-.06.13a5.35,5.35,0,0,0,1.1,5.93l.14.12v.18C84.67,122.54,85.37,125.4,88.91,126.26Z"/><path class="cls-4" d="M121,116.06c-2,4.06-5.37,9.27-8,11.13l.38.64c6.56-3.24,7.54-7.83,8.33-11.52l.62-2.92Z"/><path class="cls-4" d="M121.22,105.82l0-.2a7.35,7.35,0,0,0-2.31-5.36l-.57-.49,0,.75c-.74,12.61-9,24.69-19.67,28.73l-.47.27.4.41a3.18,3.18,0,0,0,2.25,1.11,2.85,2.85,0,0,0,1.15-.25c12.54-5.28,18-18.16,19.28-24.93Z"/><path class="cls-4" d="M114.42,102.28l.62,1.17.26-4.26L115,99c-5.42-4.2-10.36-4.27-13.56-3.6l-2,.42,2,.32C107.26,97,113.82,101.16,114.42,102.28Z"/><path class="cls-4" d="M112.07,111.36l.38.63.28-.68a40.46,40.46,0,0,0,1.57-4.63l0-.17-.12-.13c-4-4.57-11.66-7.8-18.27-7.72h-.26c-1.76,0-4.18,0-5.62,2.24l-.4.61.72,0C97.78,101.23,107.38,103.7,112.07,111.36Z"/><path class="cls-4" d="M93.61,105.17l.74-.61-1,0c-.65,0-3.13,0-4.43.1l-.16,0-.25.33a9.82,9.82,0,0,0-2,4l-.15.64.62-.2C88.66,108.83,92,106.55,93.61,105.17Z"/><path class="cls-4" d="M101.17,106.74l.33-.4-.48-.19c-.28-.11-2.13-.73-2.6-.86l-.21-.06-.16.16c-2.53,2.64-9.87,7.1-11.34,7.46l-.18.05-.07.17c0,.07-.74,1.75-.14,2.48l.15.19.24-.06C93.08,113.88,97.54,111.12,101.17,106.74Z"/><path class="cls-4" d="M106.88,110.22,107,110l-.2-.18c-.38-.34-1.66-1.4-2.28-1.81l-.28-.18-.22.26c-3.66,4.49-10.21,9.67-15.93,10.43l-.32,0v.33c0,2.66.55,4.15,1.78,4.41l.12,0,.12-.05C95.51,120.52,104.81,114.8,106.88,110.22Z"/><path class="cls-4" d="M110.63,115.34l.12-.18-.11-.2c-.18-.36-.83-1.49-1.2-2l-.3-.45-.32.44c-3.33,4.68-11.82,10.66-16.43,12.28l-.3.1,0,.31c.07.4.55,1.93,1.63,2.16h.09l.08,0A29.24,29.24,0,0,0,110.63,115.34Z"/></g></g></svg>